<svg width="43" height="44" viewBox="0 0 43 44" fill="none" xmlns="http://www.w3.org/2000/svg">
<path d="M26.4144 17.1165C25.5482 19.9372 24.1736 22.4719 23.557 23.4018C23.3311 23.8065 22.7679 24.9204 21.8766 25.888C20.8579 26.9941 20.2334 27.5214 18.708 28.4192C17.1714 29.3237 16.2061 29.4937 14.8084 29.5073C14.0015 29.5152 11.9706 29.1653 10.8199 28.3956C9.66915 27.626 9.1463 27.4615 9.02678 26.7581C8.80308 25.4414 9.91109 23.732 10.4804 22.712C11.192 21.4371 12.3288 19.9245 13.4408 19.1119C14.3303 18.4618 15.1678 18.4037 16.2775 18.224C16.5745 18.176 17.3296 18.1742 17.6205 18.1774C16.3156 17.3694 15.8812 16.5692 15.5755 15.2871C15.2909 14.0931 15.3051 12.1328 15.5307 11.0418C16.0473 8.5433 16.6699 7.16564 17.1915 5.83776C17.4951 5.06509 18.0737 4.25723 18.6315 4.56864L21.7055 6.2844C22.8711 6.93494 24.8125 8.56878 25.6987 10.403C26.751 12.5811 27.1303 14.7852 26.4144 17.1165Z" fill="currentColor"/>
<path d="M26.3405 19.5355C24.6035 21.5113 23.2184 23.7028 22.7433 24.5851C22.524 24.9395 21.9033 25.8741 21.4825 26.9664C21.0015 28.2149 20.8132 28.907 20.6286 30.4078C20.4426 31.9196 20.607 32.6757 21.0092 33.6574C21.2415 34.2242 22.0872 35.471 22.9699 35.8995C23.8526 36.3281 24.1228 36.6129 24.6549 36.3543C25.6508 35.8701 26.5316 34.2659 27.0842 33.3728C27.775 32.2564 28.5083 30.7278 28.7545 29.5569C28.9515 28.6202 28.7457 28.0077 28.5456 27.1461C28.492 26.9156 28.2707 26.3879 28.1828 26.1865C29.138 26.704 29.8312 26.618 30.8268 26.2078C31.754 25.8258 33.1343 24.8627 33.8384 24.1749C35.4508 22.5996 36.2404 21.4953 37.0245 20.4857C37.4808 19.8983 37.8808 19.1018 37.4965 18.864L35.3787 17.5536C34.5758 17.0568 32.8497 16.4968 31.293 16.7704C29.4445 17.0953 27.776 17.9024 26.3405 19.5355Z" fill="currentColor"/>
</svg>
