<svg width="20" height="20" viewBox="0 0 20 20" fill="none" xmlns="http://www.w3.org/2000/svg">
<path d="M17.0881 5.02649C17.7355 5.39316 18.1328 6.06079 18.1328 6.78212V16.0946C18.1328 17.2206 17.1814 18.1333 16.0078 18.1333H13.8828C12.7092 18.1333 11.7578 17.2206 11.7578 16.0946V12.0172C11.7578 10.8913 10.8064 9.97852 9.63281 9.97852C8.45918 9.97852 7.50781 10.8913 7.50781 12.0172V16.0946C7.50781 17.2206 6.55642 18.1333 5.38281 18.1333H3.25781C2.08421 18.1333 1.13281 17.2206 1.13281 16.0946V6.78212C1.13281 6.06079 1.53013 5.39316 2.17762 5.02649L8.55257 1.41634C9.21908 1.03895 10.0465 1.03895 10.7131 1.41634L17.0881 5.02649Z" stroke="currentColor" stroke-width="2.26667" stroke-linecap="round" stroke-linejoin="round"/>
</svg>
