<svg width="30" height="30" viewBox="0 0 30 30" fill="none" xmlns="http://www.w3.org/2000/svg">
<path d="M28.1563 6.87033C29.2989 7.51739 30 8.69557 30 9.96851V26.4023C30 28.3893 28.3211 30 26.25 30H22.5C20.4289 30 18.75 28.3893 18.75 26.4023V19.2069C18.75 17.2201 17.0711 15.6092 15 15.6092C12.9289 15.6092 11.25 17.2201 11.25 19.2069V26.4023C11.25 28.3893 9.57107 30 7.5 30H3.75C1.67893 30 0 28.3893 0 26.4023V9.96851C0 8.69557 0.701156 7.51739 1.84378 6.87033L13.0937 0.499485C14.2699 -0.166495 15.7301 -0.166495 16.9063 0.499485L28.1563 6.87033Z" fill="white"/>
</svg>
