<svg width="43" height="33" viewBox="0 0 43 33" fill="none" xmlns="http://www.w3.org/2000/svg">
<path d="M14.5391 16.9551L37.5391 19.9551C38.0391 19.9551 39.0391 20.4551 39.0391 22.9551C39.0391 24.9551 38.5391 25.9551 37.5391 26.9551L21.5391 31.4551L1.53906 25.9551V20.9551L14.5391 16.9551Z" fill="black"/>
<line x1="0.5" y1="-0.5" x2="6.5" y2="-0.5" transform="matrix(-4.37114e-08 1 1 4.37114e-08 22.5391 24.4551)" stroke="white" stroke-linecap="round"/>
<line x1="0.5" y1="-0.5" x2="5.5" y2="-0.5" transform="matrix(-4.37115e-08 1 1 4.37115e-08 1.53906 20.4551)" stroke="white" stroke-linecap="round"/>
<path d="M37.6796 19.7806L14.401 16.4551C14.401 16.4551 -0.0546913 20.5637 0.494259 20.6876C7.19209 22.1992 21.6566 25.2223 21.6566 25.2223L36.4703 20.1913C36.6718 20.1229 37.1959 20.0658 37.6796 20.3852C38.2843 20.7845 38.9453 21.4548 38.9453 22.9548C38.9453 23.9548 38.5511 25.2223 38.5511 25.2223C38.5511 25.2223 37.7455 26.6642 36.9453 26.9548C32.1082 28.7117 21.6566 31.2687 21.6566 31.2687L8.65687 28.2455L1.09887 26.1293C1.09887 26.1293 0.238884 26.3647 0.494259 26.4316C12.0391 29.4551 20.7846 31.9174 21.6566 31.8734C23.9803 31.756 33.9453 28.4548 37.6796 27.0871C38.1527 26.9138 38.4453 26.4548 38.9453 25.4548C39.2477 24.8502 39.7477 23.1641 39.4454 21.9548C39.2035 20.9874 38.4453 19.9548 37.6796 19.7806Z" fill="white"/>
<path d="M36.4703 20.1913C36.6718 20.1229 37.1959 20.0658 37.6796 20.3852C38.2843 20.7845 38.9453 21.4548 38.9453 22.9548C38.9453 23.9548 38.5511 25.2223 38.5511 25.2223C38.5511 25.2223 37.7455 26.6642 36.9453 26.9548C32.1082 28.7117 21.6566 31.2687 21.6566 31.2687L8.65687 28.2455L1.09887 26.1293C1.09887 26.1293 0.238884 26.3647 0.494259 26.4316C12.0391 29.4551 20.7846 31.9174 21.6566 31.8734C23.9803 31.756 33.9453 28.4548 37.6796 27.0871C38.1527 26.9138 38.4453 26.4548 38.9453 25.4548C39.2477 24.8502 39.7477 23.1641 39.4454 21.9548C39.2035 20.9874 38.4453 19.9548 37.6796 19.7806L14.401 16.4551C14.401 16.4551 -0.0546913 20.5637 0.494259 20.6876C7.19209 22.1992 21.6566 25.2223 21.6566 25.2223L36.4703 20.1913L37.6796 19.7806" stroke="white" stroke-width="0.892361"/>
<path d="M17.5391 8.95508L40.5391 11.9551C41.0391 11.9551 42.0391 12.4551 42.0391 14.9551C42.0391 16.9551 41.5391 17.9551 40.5391 18.9551L24.5391 23.4551L4.53906 17.9551V12.9551L17.5391 8.95508Z" fill="black"/>
<line x1="0.5" y1="-0.5" x2="6.5" y2="-0.5" transform="matrix(-4.37114e-08 1 1 4.37114e-08 25.5391 16.4551)" stroke="white" stroke-linecap="round"/>
<line x1="0.5" y1="-0.5" x2="5.5" y2="-0.5" transform="matrix(-4.37115e-08 1 1 4.37115e-08 4.53906 12.4551)" stroke="white" stroke-linecap="round"/>
<path d="M40.6796 11.7806L17.401 8.45508C17.401 8.45508 2.94531 12.5637 3.49426 12.6876C10.1921 14.1992 24.6566 17.2223 24.6566 17.2223L39.4703 12.1913C39.6718 12.1229 40.1959 12.0658 40.6796 12.3852C41.2843 12.7845 41.9453 13.4548 41.9453 14.9548C41.9453 15.9548 41.5511 17.2223 41.5511 17.2223C41.5511 17.2223 40.7455 18.6642 39.9453 18.9548C35.1082 20.7117 24.6566 23.2687 24.6566 23.2687L11.6569 20.2455L4.09887 18.1293C4.09887 18.1293 3.23888 18.3647 3.49426 18.4316C15.0391 21.4551 23.7846 23.9174 24.6566 23.8734C26.9803 23.756 36.9453 20.4548 40.6796 19.0871C41.1527 18.9138 41.4453 18.4548 41.9453 17.4548C42.2477 16.8502 42.7477 15.1641 42.4454 13.9548C42.2035 12.9874 41.4453 11.9548 40.6796 11.7806Z" fill="white"/>
<path d="M39.4703 12.1913C39.6718 12.1229 40.1959 12.0658 40.6796 12.3852C41.2843 12.7845 41.9453 13.4548 41.9453 14.9548C41.9453 15.9548 41.5511 17.2223 41.5511 17.2223C41.5511 17.2223 40.7455 18.6642 39.9453 18.9548C35.1082 20.7117 24.6566 23.2687 24.6566 23.2687L11.6569 20.2455L4.09887 18.1293C4.09887 18.1293 3.23888 18.3647 3.49426 18.4316C15.0391 21.4551 23.7846 23.9174 24.6566 23.8734C26.9803 23.756 36.9453 20.4548 40.6796 19.0871C41.1527 18.9138 41.4453 18.4548 41.9453 17.4548C42.2477 16.8502 42.7477 15.1641 42.4454 13.9548C42.2035 12.9874 41.4453 11.9548 40.6796 11.7806L17.401 8.45508C17.401 8.45508 2.94531 12.5637 3.49426 12.6876C10.1921 14.1992 24.6566 17.2223 24.6566 17.2223L39.4703 12.1913L40.6796 11.7806" stroke="white" stroke-width="0.892361"/>
<path d="M28.4473 0.955078L5.44727 3.95508C4.94727 3.95508 3.94727 4.45508 3.94727 6.95508C3.94727 8.95508 4.44727 9.95508 5.44727 10.9551L21.4473 15.4551L41.4473 9.95508V4.95508L28.4473 0.955078Z" fill="black"/>
<line x1="20.9473" y1="8.95508" x2="20.9473" y2="14.9551" stroke="white" stroke-linecap="round"/>
<line x1="41.9473" y1="4.95508" x2="41.9473" y2="9.95508" stroke="white" stroke-linecap="round"/>
<path d="M5.30674 3.78059L28.5854 0.455078C28.5854 0.455078 43.041 4.56366 42.4921 4.68755C35.7942 6.19922 21.3297 9.22235 21.3297 9.22235L6.51605 4.1913C6.3145 4.12285 5.79047 4.06581 5.30674 4.38523C4.70207 4.78451 4.04099 5.45483 4.04099 6.95483C4.04099 7.95483 4.4352 9.22235 4.4352 9.22235C4.4352 9.22235 5.24079 10.6642 6.04101 10.9548C10.8781 12.7117 21.3297 15.2687 21.3297 15.2687L34.3295 12.2455L41.8875 10.1293C41.8875 10.1293 42.7474 10.3647 42.4921 10.4316C30.9473 13.4551 22.2018 15.9174 21.3297 15.8734C19.006 15.756 9.04101 12.4548 5.30674 11.0871C4.83361 10.9138 4.54099 10.4548 4.04099 9.45483C3.73867 8.85019 3.23863 7.16411 3.54095 5.95483C3.78281 4.98741 4.54101 3.95483 5.30674 3.78059Z" fill="white"/>
<path d="M6.51605 4.1913C6.3145 4.12285 5.79047 4.06581 5.30674 4.38523C4.70207 4.78451 4.04099 5.45483 4.04099 6.95483C4.04099 7.95483 4.4352 9.22235 4.4352 9.22235C4.4352 9.22235 5.24079 10.6642 6.04101 10.9548C10.8781 12.7117 21.3297 15.2687 21.3297 15.2687L34.3295 12.2455L41.8875 10.1293C41.8875 10.1293 42.7474 10.3647 42.4921 10.4316C30.9473 13.4551 22.2018 15.9174 21.3297 15.8734C19.006 15.756 9.04101 12.4548 5.30674 11.0871C4.83361 10.9138 4.54099 10.4548 4.04099 9.45483C3.73867 8.85019 3.23863 7.16411 3.54095 5.95483C3.78281 4.98741 4.54101 3.95483 5.30674 3.78059L28.5854 0.455078C28.5854 0.455078 43.041 4.56366 42.4921 4.68755C35.7942 6.19922 21.3297 9.22235 21.3297 9.22235L6.51605 4.1913L5.30674 3.78059" stroke="white" stroke-width="0.892361"/>
</svg>
