<svg width="41" height="42" viewBox="0 0 41 42" fill="none" xmlns="http://www.w3.org/2000/svg">
<path d="M25.201 16.3311C24.3745 19.0224 23.063 21.4408 22.4747 22.328C22.2592 22.7142 21.7218 23.7769 20.8715 24.7001C19.8995 25.7554 19.3036 26.2585 17.8483 27.1152C16.3822 27.9781 15.4612 28.1404 14.1276 28.1534C13.3578 28.1609 11.42 27.827 10.3221 27.0927C9.22421 26.3583 8.72535 26.2015 8.61132 25.5303C8.39789 24.274 9.45504 22.6431 9.9982 21.6699C10.6771 20.4535 11.7618 19.0103 12.8227 18.235C13.6715 17.6148 14.4705 17.5593 15.5293 17.3879C15.8126 17.342 16.5331 17.3404 16.8106 17.3433C15.5656 16.5725 15.1511 15.809 14.8595 14.5857C14.588 13.4465 14.6015 11.5762 14.8167 10.5353C15.3096 8.15143 15.9036 6.83699 16.4014 5.57005C16.691 4.83285 17.243 4.06206 17.7752 4.35918L20.7082 5.9962C21.8203 6.61688 23.6726 8.17574 24.5181 9.92577C25.5222 12.0039 25.8841 14.1068 25.201 16.3311Z" fill="white"/>
<path d="M25.1304 18.639C23.4731 20.5242 22.1516 22.6152 21.6983 23.4569C21.4891 23.7951 20.8969 24.6867 20.4954 25.7289C20.0365 26.9202 19.8568 27.5805 19.6806 29.0124C19.5032 30.4548 19.66 31.1762 20.0438 32.1129C20.2654 32.6537 21.0723 33.8432 21.9145 34.2521C22.7567 34.661 23.0145 34.9328 23.5222 34.686C24.4723 34.224 25.3127 32.6934 25.84 31.8413C26.4991 30.7762 27.1987 29.3178 27.4336 28.2006C27.6216 27.3068 27.4253 26.7225 27.2343 25.9004C27.1832 25.6804 26.972 25.177 26.8881 24.9848C27.7995 25.4786 28.4609 25.3965 29.4108 25.0051C30.2955 24.6407 31.6125 23.7218 32.2842 23.0655C33.8227 21.5625 34.576 20.509 35.3241 19.5457C35.7594 18.9852 36.1411 18.2252 35.7744 17.9984L33.7539 16.7482C32.9878 16.2741 31.3409 15.7398 29.8557 16.0009C28.092 16.3109 26.5001 17.0809 25.1304 18.639Z" fill="white"/>
</svg>
